<svg width="7" height="7" viewBox="0 0 7 7" fill="none" xmlns="http://www.w3.org/2000/svg">
<path d="M6.54551 0H2.90915C2.65812 0 2.4546 0.203515 2.4546 0.45455C2.4546 0.705585 2.65812 0.9091 2.90915 0.9091H5.44815L0.769585 5.58768C0.592105 5.76516 0.592105 6.05298 0.769585 6.2305C0.858315 6.31923 0.974643 6.36362 1.09097 6.36362C1.2073 6.36362 1.32365 6.31923 1.41236 6.23048L6.09098 1.55191V4.09091C6.09098 4.34194 6.2945 4.54546 6.54553 4.54546C6.79657 4.54546 7.00008 4.34194 7.00008 4.09091V0.45455C7.00006 0.203515 6.79655 0 6.54551 0Z" fill="#8EA7FF"/>
</svg>
