<svg width="20" height="19" viewBox="0 0 20 19" fill="none" xmlns="http://www.w3.org/2000/svg">
<rect width="20" height="19" fill="#E5E5E5"/>
<rect x="-50" y="-146" width="380" height="1194" fill="white"/>
<path d="M-9.45312 13H-14.1406V3.25H-23.2812V13H-27.9688V-9.75H-23.2812V-0.53125H-14.1406V-9.75H-9.45312V13ZM2.14062 13.3125C-0.338542 13.3125 -2.35938 12.5521 -3.92188 11.0312C-5.47396 9.51042 -6.25 7.48438 -6.25 4.95312V4.51562C-6.25 2.81771 -5.92188 1.30208 -5.26562 -0.03125C-4.60938 -1.375 -3.68229 -2.40625 -2.48438 -3.125C-1.27604 -3.85417 0.0989583 -4.21875 1.64062 -4.21875C3.95312 -4.21875 5.77083 -3.48958 7.09375 -2.03125C8.42708 -0.572917 9.09375 1.49479 9.09375 4.17188V6.01562H-1.67188C-1.52604 7.11979 -1.08854 8.00521 -0.359375 8.67188C0.380208 9.33854 1.3125 9.67188 2.4375 9.67188C4.17708 9.67188 5.53646 9.04167 6.51562 7.78125L8.73438 10.2656C8.05729 11.224 7.14062 11.974 5.98438 12.5156C4.82812 13.0469 3.54688 13.3125 2.14062 13.3125ZM1.625 -0.5625C0.729167 -0.5625 0 -0.260417 -0.5625 0.34375C-1.11458 0.947917 -1.46875 1.8125 -1.625 2.9375H4.65625V2.57812C4.63542 1.57812 4.36458 0.807292 3.84375 0.265625C3.32292 -0.286458 2.58333 -0.5625 1.625 -0.5625ZM17.7656 6.60938L20.8906 -3.90625H25.7344L18.9375 15.625L18.5625 16.5156C17.5521 18.724 15.8854 19.8281 13.5625 19.8281C12.9062 19.8281 12.2396 19.7292 11.5625 19.5312V16.1094L12.25 16.125C13.1042 16.125 13.7396 15.9948 14.1562 15.7344C14.5833 15.474 14.9167 15.0417 15.1562 14.4375L15.6875 13.0469L9.76562 -3.90625H14.625L17.7656 6.60938ZM32.1094 6.01562H28.3594L27.8281 -9.75H32.6406L32.1094 6.01562ZM30.2344 8.48438C30.9948 8.48438 31.6042 8.70833 32.0625 9.15625C32.5312 9.60417 32.7656 10.1771 32.7656 10.875C32.7656 11.5625 32.5312 12.1302 32.0625 12.5781C31.6042 13.026 30.9948 13.25 30.2344 13.25C29.4844 13.25 28.875 13.026 28.4062 12.5781C27.9479 12.1302 27.7188 11.5625 27.7188 10.875C27.7188 10.1875 27.9479 9.61979 28.4062 9.17188C28.875 8.71354 29.4844 8.48438 30.2344 8.48438ZM-25.3008 54.6328H-17.5547V57H-28.2656V39.9375H-25.3008V54.6328ZM-9.97266 57.2344C-11.7773 57.2344 -13.2422 56.668 -14.3672 55.5352C-15.4844 54.3945 -16.043 52.8789 -16.043 50.9883V50.6367C-16.043 49.3711 -15.8008 48.2422 -15.3164 47.25C-14.8242 46.25 -14.1367 45.4727 -13.2539 44.918C-12.3711 44.3633 -11.3867 44.0859 -10.3008 44.0859C-8.57422 44.0859 -7.24219 44.6367 -6.30469 45.7383C-5.35938 46.8398 -4.88672 48.3984 -4.88672 50.4141V51.5625H-13.1719C-13.0859 52.6094 -12.7383 53.4375 -12.1289 54.0469C-11.5117 54.6562 -10.7383 54.9609 -9.80859 54.9609C-8.50391 54.9609 -7.44141 54.4336 -6.62109 53.3789L-5.08594 54.8438C-5.59375 55.6016 -6.27344 56.1914 -7.125 56.6133C-7.96875 57.0273 -8.91797 57.2344 -9.97266 57.2344ZM-10.3125 46.3711C-11.0938 46.3711 -11.7266 46.6445 -12.2109 47.1914C-12.6875 47.7383 -12.9922 48.5 -13.125 49.4766H-7.69922V49.2656C-7.76172 48.3125 -8.01562 47.5938 -8.46094 47.1094C-8.90625 46.6172 -9.52344 46.3711 -10.3125 46.3711ZM0.902344 41.2383V44.3203H3.14062V46.4297H0.902344V53.5078C0.902344 53.9922 0.996094 54.3438 1.18359 54.5625C1.37891 54.7734 1.72266 54.8789 2.21484 54.8789C2.54297 54.8789 2.875 54.8398 3.21094 54.7617V56.9648C2.5625 57.1445 1.9375 57.2344 1.33594 57.2344C-0.851562 57.2344 -1.94531 56.0273 -1.94531 53.6133V46.4297H-4.03125V44.3203H-1.94531V41.2383H0.902344ZM6.19922 45L4.74609 44.0977C5.44922 43.0742 5.8125 41.9922 5.83594 40.8516V39H8.33203V40.6172C8.33203 41.4219 8.125 42.2344 7.71094 43.0547C7.30469 43.8672 6.80078 44.5156 6.19922 45ZM15.1992 53.5547C15.1992 53.0469 14.9883 52.6602 14.5664 52.3945C14.1523 52.1289 13.4609 51.8945 12.4922 51.6914C11.5234 51.4883 10.7148 51.2305 10.0664 50.918C8.64453 50.2305 7.93359 49.2344 7.93359 47.9297C7.93359 46.8359 8.39453 45.9219 9.31641 45.1875C10.2383 44.4531 11.4102 44.0859 12.832 44.0859C14.3477 44.0859 15.5703 44.4609 16.5 45.2109C17.4375 45.9609 17.9062 46.9336 17.9062 48.1289H15.0586C15.0586 47.582 14.8555 47.1289 14.4492 46.7695C14.043 46.4023 13.5039 46.2188 12.832 46.2188C12.207 46.2188 11.6953 46.3633 11.2969 46.6523C10.9062 46.9414 10.7109 47.3281 10.7109 47.8125C10.7109 48.25 10.8945 48.5898 11.2617 48.832C11.6289 49.0742 12.3711 49.3203 13.4883 49.5703C14.6055 49.8125 15.4805 50.1055 16.1133 50.4492C16.7539 50.7852 17.2266 51.1914 17.5312 51.668C17.8438 52.1445 18 52.7227 18 53.4023C18 54.543 17.5273 55.4688 16.582 56.1797C15.6367 56.8828 14.3984 57.2344 12.8672 57.2344C11.8281 57.2344 10.9023 57.0469 10.0898 56.6719C9.27734 56.2969 8.64453 55.7812 8.19141 55.125C7.73828 54.4688 7.51172 53.7617 7.51172 53.0039H10.2773C10.3164 53.6758 10.5703 54.1953 11.0391 54.5625C11.5078 54.9219 12.1289 55.1016 12.9023 55.1016C13.6523 55.1016 14.2227 54.9609 14.6133 54.6797C15.0039 54.3906 15.1992 54.0156 15.1992 53.5547ZM30.0352 41.2383V44.3203H32.2734V46.4297H30.0352V53.5078C30.0352 53.9922 30.1289 54.3438 30.3164 54.5625C30.5117 54.7734 30.8555 54.8789 31.3477 54.8789C31.6758 54.8789 32.0078 54.8398 32.3438 54.7617V56.9648C31.6953 57.1445 31.0703 57.2344 30.4688 57.2344C28.2812 57.2344 27.1875 56.0273 27.1875 53.6133V46.4297H25.1016V44.3203H27.1875V41.2383H30.0352ZM41.0977 46.9219C40.7227 46.8594 40.3359 46.8281 39.9375 46.8281C38.6328 46.8281 37.7539 47.3281 37.3008 48.3281V57H34.4531V44.3203H37.1719L37.2422 45.7383C37.9297 44.6367 38.8828 44.0859 40.1016 44.0859C40.5078 44.0859 40.8438 44.1406 41.1094 44.25L41.0977 46.9219ZM47.543 52.9219L50.1211 44.3203H53.1562L48.1172 58.9219C47.3438 61.0547 46.0312 62.1211 44.1797 62.1211C43.7656 62.1211 43.3086 62.0508 42.8086 61.9102V59.707L43.3477 59.7422C44.0664 59.7422 44.6055 59.6094 44.9648 59.3438C45.332 59.0859 45.6211 58.6484 45.832 58.0312L46.2422 56.9414L41.7891 44.3203H44.8594L47.543 52.9219ZM64.3477 41.2383V44.3203H66.5859V46.4297H64.3477V53.5078C64.3477 53.9922 64.4414 54.3438 64.6289 54.5625C64.8242 54.7734 65.168 54.8789 65.6602 54.8789C65.9883 54.8789 66.3203 54.8398 66.6562 54.7617V56.9648C66.0078 57.1445 65.3828 57.2344 64.7812 57.2344C62.5938 57.2344 61.5 56.0273 61.5 53.6133V46.4297H59.4141V44.3203H61.5V41.2383H64.3477ZM67.8867 50.543C67.8867 49.3008 68.1328 48.1836 68.625 47.1914C69.1172 46.1914 69.8086 45.4258 70.6992 44.8945C71.5898 44.3555 72.6133 44.0859 73.7695 44.0859C75.4805 44.0859 76.8672 44.6367 77.9297 45.7383C79 46.8398 79.5781 48.3008 79.6641 50.1211L79.6758 50.7891C79.6758 52.0391 79.4336 53.1562 78.9492 54.1406C78.4727 55.125 77.7852 55.8867 76.8867 56.4258C75.9961 56.9648 74.9648 57.2344 73.793 57.2344C72.0039 57.2344 70.5703 56.6406 69.4922 55.4531C68.4219 54.2578 67.8867 52.668 67.8867 50.6836V50.543ZM70.7344 50.7891C70.7344 52.0938 71.0039 53.1172 71.543 53.8594C72.082 54.5938 72.832 54.9609 73.793 54.9609C74.7539 54.9609 75.5 54.5859 76.0312 53.8359C76.5703 53.0859 76.8398 51.9883 76.8398 50.543C76.8398 49.2617 76.5625 48.2461 76.0078 47.4961C75.4609 46.7461 74.7148 46.3711 73.7695 46.3711C72.8398 46.3711 72.1016 46.7422 71.5547 47.4844C71.0078 48.2188 70.7344 49.3203 70.7344 50.7891ZM88.8164 57V46.4297H86.8828V44.3203H88.8164V43.4531C88.8242 42.4609 89.0352 41.6094 89.4492 40.8984C89.8633 40.1875 90.4492 39.6523 91.207 39.293C91.9648 38.9336 92.875 38.7539 93.9375 38.7539C94.5625 38.7539 95.1602 38.8203 95.7305 38.9531C96.3086 39.0859 96.9062 39.2539 97.5234 39.457L97.0898 41.8125C96.0117 41.4375 95.0273 41.25 94.1367 41.25C93.2695 41.25 92.6406 41.4414 92.25 41.8242C91.8594 42.1992 91.6641 42.7656 91.6641 43.5234V44.3203H94.1602V46.4297H91.6641V57H88.8164ZM98.8711 57H96.0234V44.3203H98.8711V57ZM104.672 44.3203L104.754 45.7852C105.691 44.6523 106.922 44.0859 108.445 44.0859C111.086 44.0859 112.43 45.5977 112.477 48.6211V57H109.629V48.7852C109.629 47.9805 109.453 47.3867 109.102 47.0039C108.758 46.6133 108.191 46.418 107.402 46.418C106.254 46.418 105.398 46.9375 104.836 47.9766V57H101.988V44.3203H104.672ZM114.855 50.5664C114.855 48.6133 115.309 47.0469 116.215 45.8672C117.121 44.6797 118.336 44.0859 119.859 44.0859C121.203 44.0859 122.289 44.5547 123.117 45.4922V39H125.965V57H123.387L123.246 55.6875C122.395 56.7188 121.258 57.2344 119.836 57.2344C118.352 57.2344 117.148 56.6367 116.227 55.4414C115.312 54.2461 114.855 52.6211 114.855 50.5664ZM117.703 50.8125C117.703 52.1016 117.949 53.1094 118.441 53.8359C118.941 54.5547 119.648 54.9141 120.562 54.9141C121.727 54.9141 122.578 54.3945 123.117 53.3555V47.9414C122.594 46.9258 121.75 46.418 120.586 46.418C119.664 46.418 118.953 46.7852 118.453 47.5195C117.953 48.2461 117.703 49.3438 117.703 50.8125ZM142.488 57C142.363 56.7578 142.254 56.3633 142.16 55.8164C141.254 56.7617 140.145 57.2344 138.832 57.2344C137.559 57.2344 136.52 56.8711 135.715 56.1445C134.91 55.418 134.508 54.5195 134.508 53.4492C134.508 52.0977 135.008 51.0625 136.008 50.3438C137.016 49.6172 138.453 49.2539 140.32 49.2539H142.066V48.4219C142.066 47.7656 141.883 47.2422 141.516 46.8516C141.148 46.4531 140.59 46.2539 139.84 46.2539C139.191 46.2539 138.66 46.418 138.246 46.7461C137.832 47.0664 137.625 47.4766 137.625 47.9766H134.777C134.777 47.2812 135.008 46.6328 135.469 46.0312C135.93 45.4219 136.555 44.9453 137.344 44.6016C138.141 44.2578 139.027 44.0859 140.004 44.0859C141.488 44.0859 142.672 44.4609 143.555 45.2109C144.438 45.9531 144.891 47 144.914 48.3516V54.0703C144.914 55.2109 145.074 56.1211 145.395 56.8008V57H142.488ZM139.359 54.9492C139.922 54.9492 140.449 54.8125 140.941 54.5391C141.441 54.2656 141.816 53.8984 142.066 53.4375V51.0469H140.531C139.477 51.0469 138.684 51.2305 138.152 51.5977C137.621 51.9648 137.355 52.4844 137.355 53.1562C137.355 53.7031 137.535 54.1406 137.895 54.4688C138.262 54.7891 138.75 54.9492 139.359 54.9492ZM156.844 44.3203V58.125C156.844 59.4219 156.52 60.4102 155.871 61.0898C155.23 61.7773 154.289 62.1211 153.047 62.1211C152.523 62.1211 152.02 62.0547 151.535 61.9219V59.6719C151.832 59.7422 152.168 59.7773 152.543 59.7773C153.488 59.7773 153.973 59.2617 153.996 58.2305V44.3203H156.844ZM153.75 41.0273C153.75 40.5898 153.887 40.2266 154.16 39.9375C154.441 39.6484 154.84 39.5039 155.355 39.5039C155.871 39.5039 156.27 39.6484 156.551 39.9375C156.832 40.2266 156.973 40.5898 156.973 41.0273C156.973 41.457 156.832 41.8164 156.551 42.1055C156.27 42.3867 155.871 42.5273 155.355 42.5273C154.84 42.5273 154.441 42.3867 154.16 42.1055C153.887 41.8164 153.75 41.457 153.75 41.0273ZM159.363 50.543C159.363 49.3008 159.609 48.1836 160.102 47.1914C160.594 46.1914 161.285 45.4258 162.176 44.8945C163.066 44.3555 164.09 44.0859 165.246 44.0859C166.957 44.0859 168.344 44.6367 169.406 45.7383C170.477 46.8398 171.055 48.3008 171.141 50.1211L171.152 50.7891C171.152 52.0391 170.91 53.1562 170.426 54.1406C169.949 55.125 169.262 55.8867 168.363 56.4258C167.473 56.9648 166.441 57.2344 165.27 57.2344C163.48 57.2344 162.047 56.6406 160.969 55.4531C159.898 54.2578 159.363 52.668 159.363 50.6836V50.543ZM162.211 50.7891C162.211 52.0938 162.48 53.1172 163.02 53.8594C163.559 54.5938 164.309 54.9609 165.27 54.9609C166.23 54.9609 166.977 54.5859 167.508 53.8359C168.047 53.0859 168.316 51.9883 168.316 50.543C168.316 49.2617 168.039 48.2461 167.484 47.4961C166.938 46.7461 166.191 46.3711 165.246 46.3711C164.316 46.3711 163.578 46.7422 163.031 47.4844C162.484 48.2188 162.211 49.3203 162.211 50.7891ZM177.68 51.5625L176.414 52.8633V57H173.566V39H176.414V49.3828L177.305 48.2695L180.809 44.3203H184.23L179.52 49.6055L184.734 57H181.441L177.68 51.5625ZM191.449 57.2344C189.645 57.2344 188.18 56.668 187.055 55.5352C185.938 54.3945 185.379 52.8789 185.379 50.9883V50.6367C185.379 49.3711 185.621 48.2422 186.105 47.25C186.598 46.25 187.285 45.4727 188.168 44.918C189.051 44.3633 190.035 44.0859 191.121 44.0859C192.848 44.0859 194.18 44.6367 195.117 45.7383C196.062 46.8398 196.535 48.3984 196.535 50.4141V51.5625H188.25C188.336 52.6094 188.684 53.4375 189.293 54.0469C189.91 54.6562 190.684 54.9609 191.613 54.9609C192.918 54.9609 193.98 54.4336 194.801 53.3789L196.336 54.8438C195.828 55.6016 195.148 56.1914 194.297 56.6133C193.453 57.0273 192.504 57.2344 191.449 57.2344ZM191.109 46.3711C190.328 46.3711 189.695 46.6445 189.211 47.1914C188.734 47.7383 188.43 48.5 188.297 49.4766H193.723V49.2656C193.66 48.3125 193.406 47.5938 192.961 47.1094C192.516 46.6172 191.898 46.3711 191.109 46.3711ZM205.734 57V46.4297H203.801V44.3203H205.734V43.1602C205.734 41.7539 206.125 40.668 206.906 39.9023C207.688 39.1367 208.781 38.7539 210.188 38.7539C210.688 38.7539 211.219 38.8242 211.781 38.9648L211.711 41.1914C211.398 41.1289 211.035 41.0977 210.621 41.0977C209.262 41.0977 208.582 41.7969 208.582 43.1953V44.3203H211.16V46.4297H208.582V57H205.734ZM212.707 50.543C212.707 49.3008 212.953 48.1836 213.445 47.1914C213.938 46.1914 214.629 45.4258 215.52 44.8945C216.41 44.3555 217.434 44.0859 218.59 44.0859C220.301 44.0859 221.688 44.6367 222.75 45.7383C223.82 46.8398 224.398 48.3008 224.484 50.1211L224.496 50.7891C224.496 52.0391 224.254 53.1562 223.77 54.1406C223.293 55.125 222.605 55.8867 221.707 56.4258C220.816 56.9648 219.785 57.2344 218.613 57.2344C216.824 57.2344 215.391 56.6406 214.312 55.4531C213.242 54.2578 212.707 52.668 212.707 50.6836V50.543ZM215.555 50.7891C215.555 52.0938 215.824 53.1172 216.363 53.8594C216.902 54.5938 217.652 54.9609 218.613 54.9609C219.574 54.9609 220.32 54.5859 220.852 53.8359C221.391 53.0859 221.66 51.9883 221.66 50.543C221.66 49.2617 221.383 48.2461 220.828 47.4961C220.281 46.7461 219.535 46.3711 218.59 46.3711C217.66 46.3711 216.922 46.7422 216.375 47.4844C215.828 48.2188 215.555 49.3203 215.555 50.7891ZM233.543 46.9219C233.168 46.8594 232.781 46.8281 232.383 46.8281C231.078 46.8281 230.199 47.3281 229.746 48.3281V57H226.898V44.3203H229.617L229.688 45.7383C230.375 44.6367 231.328 44.0859 232.547 44.0859C232.953 44.0859 233.289 44.1406 233.555 44.25L233.543 46.9219ZM245.754 52.9219L248.332 44.3203H251.367L246.328 58.9219C245.555 61.0547 244.242 62.1211 242.391 62.1211C241.977 62.1211 241.52 62.0508 241.02 61.9102V59.707L241.559 59.7422C242.277 59.7422 242.816 59.6094 243.176 59.3438C243.543 59.0859 243.832 58.6484 244.043 58.0312L244.453 56.9414L240 44.3203H243.07L245.754 52.9219ZM252.293 50.543C252.293 49.3008 252.539 48.1836 253.031 47.1914C253.523 46.1914 254.215 45.4258 255.105 44.8945C255.996 44.3555 257.02 44.0859 258.176 44.0859C259.887 44.0859 261.273 44.6367 262.336 45.7383C263.406 46.8398 263.984 48.3008 264.07 50.1211L264.082 50.7891C264.082 52.0391 263.84 53.1562 263.355 54.1406C262.879 55.125 262.191 55.8867 261.293 56.4258C260.402 56.9648 259.371 57.2344 258.199 57.2344C256.41 57.2344 254.977 56.6406 253.898 55.4531C252.828 54.2578 252.293 52.668 252.293 50.6836V50.543ZM255.141 50.7891C255.141 52.0938 255.41 53.1172 255.949 53.8594C256.488 54.5938 257.238 54.9609 258.199 54.9609C259.16 54.9609 259.906 54.5859 260.438 53.8359C260.977 53.0859 261.246 51.9883 261.246 50.543C261.246 49.2617 260.969 48.2461 260.414 47.4961C259.867 46.7461 259.121 46.3711 258.176 46.3711C257.246 46.3711 256.508 46.7422 255.961 47.4844C255.414 48.2188 255.141 49.3203 255.141 50.7891ZM274.172 55.7578C273.336 56.7422 272.148 57.2344 270.609 57.2344C269.234 57.2344 268.191 56.832 267.48 56.0273C266.777 55.2227 266.426 54.0586 266.426 52.5352V44.3203H269.273V52.5C269.273 54.1094 269.941 54.9141 271.277 54.9141C272.66 54.9141 273.594 54.418 274.078 53.4258V44.3203H276.926V57H274.242L274.172 55.7578ZM281.543 54C282.074 54 282.484 54.1523 282.773 54.457C283.062 54.7539 283.207 55.1289 283.207 55.582C283.207 56.0273 283.062 56.3984 282.773 56.6953C282.484 56.9844 282.074 57.1289 281.543 57.1289C281.035 57.1289 280.633 56.9844 280.336 56.6953C280.039 56.4062 279.891 56.0352 279.891 55.582C279.891 55.1289 280.035 54.7539 280.324 54.457C280.613 54.1523 281.02 54 281.543 54ZM281.543 44.0508C282.074 44.0508 282.484 44.2031 282.773 44.5078C283.062 44.8047 283.207 45.1797 283.207 45.6328C283.207 46.0781 283.062 46.4492 282.773 46.7461C282.484 47.0352 282.074 47.1797 281.543 47.1797C281.035 47.1797 280.633 47.0352 280.336 46.7461C280.039 46.457 279.891 46.0859 279.891 45.6328C279.891 45.1797 280.035 44.8047 280.324 44.5078C280.613 44.2031 281.02 44.0508 281.543 44.0508Z" fill="#333333"/>
<rect x="-50" y="-146" width="380" height="1194" fill="#F8F8F8"/>
<g filter="url(#filter0_d)">
<rect x="-30" y="-58" width="340" height="200" rx="10" fill="white"/>
<rect x="-29.5" y="-57.5" width="339" height="199" rx="9.5" stroke="#F8F8F8"/>
</g>
<circle cx="10" cy="9" r="20" fill="#F8F8F8"/>
<path d="M17.2504 0H2.74963C1.23352 0 0 1.23328 0 2.74963V11.6238C0 13.1367 1.22815 14.368 2.73987 14.3734V18.4004L8.5271 14.3734H17.2504C18.7665 14.3734 20 13.1399 20 11.6238V2.74963C20 1.23328 18.7665 0 17.2504 0ZM18.8281 11.6238C18.8281 12.4937 18.1204 13.2015 17.2504 13.2015H8.15942L3.91174 16.1573V13.2015H2.74963C1.87964 13.2015 1.17188 12.4937 1.17188 11.6238V2.74963C1.17188 1.87952 1.87964 1.17188 2.74963 1.17188H17.2504C18.1204 1.17188 18.8281 1.87952 18.8281 2.74963V11.6238Z" fill="#ABABAB"/>
<path d="M5.35303 4.14075H14.6472V5.31262H5.35303V4.14075Z" fill="#ABABAB"/>
<path d="M5.35303 6.64075H14.6472V7.81262H5.35303V6.64075Z" fill="#ABABAB"/>
<path d="M5.35303 9.14075H14.6472V10.3126H5.35303V9.14075Z" fill="#ABABAB"/>
<defs>
<filter id="filter0_d" x="-36" y="-60" width="352" height="212" filterUnits="userSpaceOnUse" color-interpolation-filters="sRGB">
<feFlood flood-opacity="0" result="BackgroundImageFix"/>
<feColorMatrix in="SourceAlpha" type="matrix" values="0 0 0 0 0 0 0 0 0 0 0 0 0 0 0 0 0 0 127 0"/>
<feOffset dy="4"/>
<feGaussianBlur stdDeviation="3"/>
<feColorMatrix type="matrix" values="0 0 0 0 0 0 0 0 0 0 0 0 0 0 0 0 0 0 0.1 0"/>
<feBlend mode="normal" in2="BackgroundImageFix" result="effect1_dropShadow"/>
<feBlend mode="normal" in="SourceGraphic" in2="effect1_dropShadow" result="shape"/>
</filter>
</defs>
</svg>
